<?xml version="1.0" encoding="UTF-8"?>
<svg xmlns="http://www.w3.org/2000/svg" xmlns:xlink="http://www.w3.org/1999/xlink" width="375pt" height="374.999991pt" viewBox="0 0 375 374.999991" version="1.2">
<defs>
<clipPath id="clip1">
  <path d="M 9 8.90625 L 366 8.90625 L 366 365 L 9 365 Z M 9 8.90625 "/>
</clipPath>
</defs>
<g id="surface1">
<g clip-path="url(#clip1)" clip-rule="nonzero">
<path style=" stroke:none;fill-rule:nonzero;fill:rgb(24.708557%,31.759644%,70.979309%);fill-opacity:1;" d="M 187.5 8.90625 C 184.585938 8.90625 181.671875 8.976562 178.757812 9.121094 C 175.847656 9.261719 172.941406 9.476562 170.039062 9.761719 C 167.136719 10.046875 164.246094 10.40625 161.359375 10.832031 C 158.476562 11.257812 155.605469 11.757812 152.746094 12.324219 C 149.886719 12.894531 147.042969 13.53125 144.214844 14.238281 C 141.386719 14.945312 138.578125 15.722656 135.785156 16.570312 C 132.996094 17.414062 130.230469 18.328125 127.484375 19.308594 C 124.738281 20.289062 122.019531 21.339844 119.324219 22.453125 C 116.632812 23.566406 113.96875 24.746094 111.332031 25.992188 C 108.695312 27.238281 106.09375 28.546875 103.519531 29.917969 C 100.949219 31.292969 98.414062 32.726562 95.914062 34.226562 C 93.414062 35.722656 90.949219 37.28125 88.527344 38.898438 C 86.101562 40.515625 83.71875 42.191406 81.378906 43.925781 C 79.035156 45.664062 76.738281 47.453125 74.484375 49.300781 C 72.230469 51.148438 70.023438 53.050781 67.863281 55.007812 C 65.703125 56.960938 63.589844 58.96875 61.53125 61.03125 C 59.46875 63.089844 57.457031 65.199219 55.5 67.355469 C 53.542969 69.515625 51.640625 71.71875 49.789062 73.96875 C 47.941406 76.222656 46.148438 78.515625 44.410156 80.855469 C 42.671875 83.195312 40.996094 85.574219 39.375 87.996094 C 37.753906 90.417969 36.195312 92.878906 34.695312 95.378906 C 33.199219 97.875 31.761719 100.410156 30.386719 102.976562 C 29.011719 105.546875 27.703125 108.148438 26.457031 110.78125 C 25.210938 113.414062 24.027344 116.074219 22.914062 118.765625 C 21.796875 121.457031 20.746094 124.171875 19.765625 126.914062 C 18.785156 129.65625 17.867188 132.421875 17.023438 135.207031 C 16.175781 137.996094 15.398438 140.800781 14.691406 143.625 C 13.980469 146.453125 13.34375 149.292969 12.773438 152.148438 C 12.207031 155.003906 11.707031 157.875 11.28125 160.753906 C 10.851562 163.636719 10.496094 166.527344 10.210938 169.425781 C 9.921875 172.324219 9.710938 175.226562 9.566406 178.136719 C 9.421875 181.042969 9.351562 183.957031 9.351562 186.867188 C 9.351562 189.78125 9.421875 192.691406 9.566406 195.601562 C 9.710938 198.507812 9.921875 201.414062 10.210938 204.3125 C 10.496094 207.210938 10.851562 210.097656 11.28125 212.980469 C 11.707031 215.859375 12.207031 218.730469 12.773438 221.585938 C 13.34375 224.441406 13.980469 227.285156 14.691406 230.109375 C 15.398438 232.933594 16.175781 235.738281 17.023438 238.527344 C 17.867188 241.3125 18.785156 244.078125 19.765625 246.820312 C 20.746094 249.5625 21.796875 252.28125 22.914062 254.96875 C 24.027344 257.660156 25.210938 260.324219 26.457031 262.957031 C 27.703125 265.589844 29.011719 268.1875 30.386719 270.757812 C 31.761719 273.328125 33.199219 275.859375 34.695312 278.359375 C 36.195312 280.855469 37.753906 283.316406 39.375 285.738281 C 40.996094 288.160156 42.671875 290.539062 44.410156 292.878906 C 46.148438 295.21875 47.941406 297.515625 49.789062 299.765625 C 51.640625 302.015625 53.542969 304.222656 55.5 306.378906 C 57.457031 308.539062 59.46875 310.644531 61.53125 312.707031 C 63.589844 314.765625 65.703125 316.773438 67.863281 318.726562 C 70.023438 320.683594 72.230469 322.585938 74.484375 324.433594 C 76.738281 326.28125 79.035156 328.074219 81.378906 329.808594 C 83.71875 331.542969 86.101562 333.21875 88.527344 334.835938 C 90.949219 336.457031 93.414062 338.011719 95.914062 339.511719 C 98.414062 341.007812 100.949219 342.441406 103.519531 343.816406 C 106.09375 345.1875 108.695312 346.496094 111.332031 347.742188 C 113.96875 348.988281 116.632812 350.167969 119.324219 351.28125 C 122.019531 352.398438 124.738281 353.445312 127.484375 354.425781 C 130.230469 355.40625 132.996094 356.320312 135.785156 357.167969 C 138.578125 358.011719 141.386719 358.789062 144.214844 359.496094 C 147.042969 360.203125 149.886719 360.839844 152.746094 361.410156 C 155.605469 361.976562 158.476562 362.476562 161.359375 362.902344 C 164.246094 363.332031 167.136719 363.6875 170.039062 363.972656 C 172.941406 364.257812 175.847656 364.472656 178.757812 364.613281 C 181.671875 364.757812 184.585938 364.828125 187.5 364.828125 C 190.414062 364.828125 193.328125 364.757812 196.242188 364.613281 C 199.152344 364.472656 202.058594 364.257812 204.960938 363.972656 C 207.863281 363.6875 210.753906 363.332031 213.640625 362.902344 C 216.523438 362.476562 219.394531 361.976562 222.253906 361.410156 C 225.113281 360.839844 227.957031 360.203125 230.785156 359.496094 C 233.613281 358.789062 236.421875 358.011719 239.214844 357.167969 C 242.003906 356.320312 244.769531 355.40625 247.515625 354.425781 C 250.261719 353.445312 252.980469 352.398438 255.675781 351.28125 C 258.367188 350.167969 261.03125 348.988281 263.667969 347.742188 C 266.304688 346.496094 268.90625 345.1875 271.480469 343.816406 C 274.050781 342.441406 276.585938 341.007812 279.085938 339.511719 C 281.585938 338.011719 284.050781 336.457031 286.472656 334.835938 C 288.898438 333.21875 291.28125 331.542969 293.621094 329.808594 C 295.964844 328.074219 298.261719 326.28125 300.515625 324.433594 C 302.769531 322.585938 304.976562 320.683594 307.136719 318.726562 C 309.296875 316.773438 311.410156 314.765625 313.46875 312.707031 C 315.53125 310.644531 317.542969 308.539062 319.5 306.378906 C 321.457031 304.222656 323.359375 302.015625 325.210938 299.765625 C 327.058594 297.515625 328.851562 295.21875 330.589844 292.878906 C 332.328125 290.539062 334.003906 288.160156 335.625 285.738281 C 337.246094 283.316406 338.804688 280.855469 340.304688 278.359375 C 341.800781 275.859375 343.238281 273.328125 344.613281 270.757812 C 345.988281 268.1875 347.296875 265.589844 348.542969 262.957031 C 349.789062 260.324219 350.972656 257.660156 352.085938 254.96875 C 353.203125 252.28125 354.253906 249.5625 355.234375 246.820312 C 356.214844 244.078125 357.132812 241.3125 357.976562 238.527344 C 358.824219 235.738281 359.601562 232.933594 360.308594 230.109375 C 361.019531 227.285156 361.65625 224.441406 362.226562 221.585938 C 362.792969 218.730469 363.292969 215.859375 363.71875 212.980469 C 364.148438 210.097656 364.503906 207.210938 364.789062 204.3125 C 365.078125 201.414062 365.289062 198.507812 365.433594 195.601562 C 365.578125 192.691406 365.648438 189.78125 365.648438 186.867188 C 365.648438 183.957031 365.578125 181.042969 365.433594 178.136719 C 365.289062 175.226562 365.078125 172.324219 364.789062 169.425781 C 364.503906 166.527344 364.148438 163.636719 363.71875 160.753906 C 363.292969 157.875 362.792969 155.003906 362.226562 152.148438 C 361.65625 149.292969 361.019531 146.453125 360.308594 143.625 C 359.601562 140.800781 358.824219 137.996094 357.976562 135.207031 C 357.132812 132.421875 356.214844 129.65625 355.234375 126.914062 C 354.253906 124.171875 353.203125 121.457031 352.085938 118.765625 C 350.972656 116.074219 349.789062 113.414062 348.542969 110.78125 C 347.296875 108.148438 345.988281 105.546875 344.613281 102.976562 C 343.238281 100.410156 341.800781 97.875 340.304688 95.378906 C 338.804688 92.878906 337.246094 90.417969 335.625 87.996094 C 334.003906 85.574219 332.328125 83.195312 330.589844 80.855469 C 328.851562 78.515625 327.058594 76.222656 325.210938 73.96875 C 323.359375 71.71875 321.457031 69.515625 319.5 67.355469 C 317.542969 65.199219 315.53125 63.089844 313.46875 61.03125 C 311.410156 58.96875 309.296875 56.960938 307.136719 55.007812 C 304.976562 53.050781 302.769531 51.148438 300.515625 49.300781 C 298.261719 47.453125 295.964844 45.664062 293.621094 43.925781 C 291.28125 42.191406 288.898438 40.515625 286.472656 38.898438 C 284.050781 37.28125 281.585938 35.722656 279.085938 34.226562 C 276.585938 32.726562 274.050781 31.292969 271.476562 29.917969 C 268.90625 28.546875 266.304688 27.238281 263.667969 25.992188 C 261.03125 24.746094 258.367188 23.566406 255.675781 22.453125 C 252.980469 21.339844 250.261719 20.289062 247.515625 19.308594 C 244.769531 18.328125 242.003906 17.414062 239.214844 16.570312 C 236.421875 15.722656 233.613281 14.945312 230.785156 14.238281 C 227.957031 13.53125 225.113281 12.894531 222.253906 12.324219 C 219.394531 11.757812 216.523438 11.257812 213.640625 10.832031 C 210.753906 10.40625 207.863281 10.046875 204.960938 9.761719 C 202.058594 9.476562 199.152344 9.261719 196.242188 9.121094 C 193.328125 8.976562 190.414062 8.90625 187.5 8.90625 Z M 187.5 8.90625 "/>
</g>
<path style=" stroke:none;fill-rule:nonzero;fill:rgb(100%,100%,100%);fill-opacity:1;" d="M 235.316406 186.867188 L 205.316406 186.867188 L 205.316406 293.644531 L 160.777344 293.644531 L 160.777344 186.867188 L 134.054688 186.867188 L 134.054688 151.273438 L 160.777344 151.273438 L 160.777344 129.832031 C 160.796875 98.617188 173.773438 80.089844 210.589844 80.089844 L 240.945312 80.089844 L 240.945312 115.683594 L 220.574219 115.683594 C 206.242188 115.683594 205.316406 121.023438 205.316406 131.015625 L 205.316406 151.273438 L 240.945312 151.273438 Z M 235.316406 186.867188 "/>
</g>
</svg>
